<svg xmlns="http://www.w3.org/2000/svg" width="263.775" height="49.216" viewBox="0 0 263.775 49.216"><g transform="translate(312.775 2089.417)"><text transform="translate(-223 -2055)" fill="#2b2b2b" font-size="35" font-family="Asap-Medium, Asap" font-weight="500"><tspan x="0" y="0">MoltoTerfo</tspan></text><path d="M138.763-440.259a20.115,20.115,0,0,1-19.217,19.272,20.021,20.021,0,0,1-16.8-7.928l5.479-8.288a11.182,11.182,0,0,0,10.508,7.355A11.164,11.164,0,0,0,129.9-441.011a11.169,11.169,0,0,0-11.163-11.169,11.16,11.16,0,0,0-2.886.376,11.22,11.22,0,0,0-3.07,1.338,11.4,11.4,0,0,0-3.741,3.908l-2.687,4.069-6.106,9.226q-3.8,5.636-7.594,11.279L85.942-411.84H75.45l6.378-9.643,5.562-8.415,9.6-14.528a11.06,11.06,0,0,0-2.465-4.2,11.136,11.136,0,0,0-8.171-3.553A11.164,11.164,0,0,0,75.2-441.011a11.161,11.161,0,0,0,7.355,10.5L77.576-423a20.033,20.033,0,0,1-11.257-18.013,20.039,20.039,0,0,1,20.04-20.045,20,20,0,0,1,13.145,4.9,20.5,20.5,0,0,1,3.042,3.32c.283-.389.589-.772.9-1.138a19.988,19.988,0,0,1,15.294-7.083A20.039,20.039,0,0,1,138.763-440.259Z" transform="translate(-379.094 -1628.361)" fill="#ff6517"/></g></svg>