<svg xmlns="http://www.w3.org/2000/svg" width="243" height="159.518" viewBox="0 0 243 159.518"><g transform="translate(-606.273 -130.083)"><text transform="translate(606.273 276.602)" fill="#ff6517" font-size="50" font-family="SegoeUI, Segoe UI"><tspan x="0" y="0">MoltoTerfo</tspan></text><path d="M208.39-420.271A39.448,39.448,0,0,1,170.7-382.477a39.264,39.264,0,0,1-32.938-15.548l10.745-16.253a21.93,21.93,0,0,0,20.608,14.424,21.893,21.893,0,0,0,21.891-21.891,21.9,21.9,0,0,0-21.891-21.9,21.88,21.88,0,0,0-5.661.738,22,22,0,0,0-6.021,2.624,22.359,22.359,0,0,0-7.337,7.665l-5.27,7.98-11.974,18.093q-7.448,11.054-14.892,22.12L104.8-364.538H84.226l12.509-18.911,10.908-16.5,18.833-28.49a21.69,21.69,0,0,0-4.833-8.241,21.838,21.838,0,0,0-16.024-6.967,21.894,21.894,0,0,0-21.882,21.9,21.887,21.887,0,0,0,14.424,20.584L88.4-386.419a39.286,39.286,0,0,1-22.077-35.326,39.3,39.3,0,0,1,39.3-39.311,39.229,39.229,0,0,1,25.778,9.613,40.2,40.2,0,0,1,5.965,6.51c.556-.762,1.154-1.513,1.764-2.233a39.2,39.2,0,0,1,29.992-13.89A39.3,39.3,0,0,1,208.39-420.271Z" transform="translate(601.149 591.14)" fill="#ff6517"/></g></svg>